{"title":"Holiday 2014 Hindi 1080p Bluray x265 HEVC DTS...Hon3y","uid":10783252,"size":3865911374,"categoryP":"video","categoryS":"hd___movies","magnet":"?xt=urn:btih:0a177207fad72a362f228eba3d204e112549c3b2&amp;dn=Holiday+2014+Hindi+1080p+Bluray+x265+HEVC+DTS...Hon3y&amp;tr=udp%3A%2F%2Ftracker.openbittorrent.com%3A80&amp;tr=udp%3A%2F%2Fopen.demonii.com%3A1337&amp;tr=udp%3A%2F%2Ftracker.coppersurfer.tk%3A6969&amp;tr=udp%3A%2F%2Fexodus.desync.com%3A6969","seeders":1,"leechers":3,"uploader":"honey8ee","files":5,"time":1408147375,"description":"www.imdb.com/title/tt2556308\n\nSource                                   : BD50 Thanks Telly\nFormat                                   : Matroska\nFormat version                           : Version 4 / Version 2\nFile size                                : 3.56 GiB\nDuration                                 : 2h 40mn\nOverall bit rate                         : 3 168 Kbps\n\n\n\nVideo\nID                                       : 1\nFormat                                   : HEVC\nFormat/Info                              : High Efficiency Video Coding\nCodec ID                                 : V_MPEGH/ISO/HEVC\nDuration                                 : 2h 40mn\nBit rate                                 : 2 337 Kbps\nWidth                                    : 1 920 pixels\nHeight                                   : 816 pixels\nDisplay aspect ratio                     : 2.35:1\nFrame rate mode                          : Constant\nFrame rate                               : 23.976 fps\nBits/(Pixel*Frame)                       : 0.062\nStream size                              : 2.62 GiB (74%)\n\n\nAudio\nID                                       : 2\nFormat                                   : DTS\nFormat/Info                              : Digital Theater Systems\nMode                                     : 16\nFormat settings, Endianness              : Big\nCodec ID                                 : A_DTS\nDuration                                 : 2h 40mn\nBit rate mode                            : Constant\nBit rate                                 : 768 Kbps\nChannel(s)                               : 6 channels\nChannel positions                        : Front: L C R, Side: L R, LFE\nSampling rate                            : 48.0 KHz\nBit depth                                : 24 bits\nCompression mode                         : Lossy\nStream size                              : 883 MiB (24%)\n\n\nText\nLanguage                                 : English\n\nMenu\n00:00:00.000                             : en:Chapter 1\n00:03:56.361                             : en:Chapter 2\n00:09:20.851                             : en:Chapter 3\n00:15:35.851                             : en:Chapter 4\n00:18:55.759                             : en:Chapter 5\n00:26:57.657                             : en:Chapter 6\n00:33:56.325                             : en:Chapter 7\n00:39:32.119                             : en:Chapter 8\n00:44:37.925                             : en:Chapter 9\n00:50:53.341                             : en:Chapter 10\n01:02:03.720                             : en:Chapter 11\n01:12:09.366                             : en:Chapter 12\n01:16:31.628                             : en:Chapter 13\n01:25:40.176                             : en:Chapter 14\n01:35:46.866                             : en:Chapter 15\n01:44:29.429                             : en:Chapter 16\n01:59:19.443                             : en:Chapter 17\n02:07:21.925                             : en:Chapter 18\n02:17:03.423                             : en:Chapter 19\n02:34:02.733                             : en:Chapter 20\n\nFor Screen Shots:\n &lt;a href=&quot;\nhttp://www.hon3yhd.com/index.php?page=torrent-details&amp;id=0a177207fad72a362f228eba3d204e112549c3b2&quot; rel=&quot;nofollow&quot; target=&quot;_NEW&quot;&gt;\nhttp://www.hon3yhd.com/index.php?page=torrent-details&amp;id=0a177207fad72a362f228eba3d204e112549c3b2&lt;/a&gt;","torrent":{"xt":"urn:btih:0a177207fad72a362f228eba3d204e112549c3b2","amp;dn":"Holiday+2014+Hindi+1080p+Bluray+x265+HEVC+DTS...Hon3y","amp;tr":["udp%3A%2F%2Ftracker.openbittorrent.com%3A80","udp%3A%2F%2Fopen.demonii.com%3A1337","udp%3A%2F%2Ftracker.coppersurfer.tk%3A6969","udp%3A%2F%2Fexodus.desync.com%3A6969"],"infoHash":"0a177207fad72a362f228eba3d204e112549c3b2","infoHashBuffer":{"type":"Buffer","data":[10,23,114,7,250,215,42,54,47,34,142,186,61,32,78,17,37,73,195,178]},"announce":[],"urlList":[]}}